<svg xmlns:dc="http://purl.org/dc/elements/1.1/" xmlns:cc="http://creativecommons.org/ns#" xmlns:rdf="http://www.w3.org/1999/02/22-rdf-syntax-ns#" xmlns:svg="http://www.w3.org/2000/svg" xmlns="http://www.w3.org/2000/svg" xmlns:sodipodi="http://sodipodi.sourceforge.net/DTD/sodipodi-0.dtd" xmlns:inkscape="http://www.inkscape.org/namespaces/inkscape" version="1.1" baseProfile="tiny" width="20.816326141357422" height="20.081632614135742" xml:space="preserve" sodipodi:version="0.32" inkscape:version="0.46" sodipodi:docname="Bismillah2.svg" inkscape:output_extension="org.inkscape.output.svg.inkscape" style=""><rect id="backgroundrect" width="100%" height="100%" x="0" y="0" fill="none" stroke="none" class="" style=""/><metadata id="metadata41"><rdf:RDF><cc:Work rdf:about=""><dc:format>image/svg+xml</dc:format><dc:type rdf:resource="http://purl.org/dc/dcmitype/StillImage"/></cc:Work></rdf:RDF></metadata><sodipodi:namedview inkscape:window-height="743" inkscape:window-width="1279" inkscape:pageshadow="2" inkscape:pageopacity="0.0" guidetolerance="10.0" gridtolerance="10.0" objecttolerance="10.0" borderopacity="1.0" bordercolor="#666666" pagecolor="#ffffff" id="base" showgrid="false" inkscape:zoom="2.9109229" inkscape:cx="83.586988" inkscape:cy="178.1479" inkscape:window-x="0" inkscape:window-y="28" inkscape:current-layer="svg2"/>
<defs id="defs4"><inkscape:perspective sodipodi:type="inkscape:persp3d" inkscape:vp_x="0 : 120 : 1" inkscape:vp_y="0 : 1000 : 0" inkscape:vp_z="247 : 120 : 1" inkscape:persp3d-origin="123.5 : 80 : 1" id="perspective43"/>
</defs>

















<g class="currentLayer" style=""><title>Layer 1</title><path id="path8" d="M6.5428452851240735,17.62906299653173 C5.807044645648472,17.733467141322183 5.25519416604177,17.077212516925023 5.2303360363297555,16.495449421231537 C5.207217975697583,15.951139240970809 5.3256255335591405,15.596413729980375 5.449170438227848,15.222713179976438 C5.098670809288457,15.350401106263815 4.8277171954275095,15.56260667357204 4.4746488930845425,15.640412619570641 C3.6850718329986183,15.81450238798711 2.9135583471700897,15.390091253370665 2.7445230651283974,14.76532359327539 C2.5721733657917705,14.128209728756481 2.795896533199892,13.534680451665972 3.0229341179029494,13.055001408656482 C2.7329226045961237,13.171006013979213 2.3012197519308217,13.288667827949409 1.9490629143439635,13.154351067072163 C1.2306629656667702,12.880994500672386 0.9041928621156586,11.514625970835374 1.750197876647854,10.449786554405085 C1.0491986187690716,10.333036205190997 0.3796863251921722,8.926811807382386 1.9490629143439635,7.168513432419292 C1.273750390500927,8.229955571122272 0.9812530642229008,9.640240130117176 1.670651861569411,9.813418433777535 C2.3467929897361803,9.983282320142962 2.762835220682914,9.500205999406166 3.102480132981393,9.196936816919601 C3.7670208006158896,8.602827516802476 4.559166534105389,7.865369668679406 5.3496550589474205,7.566243507811509 C5.48720337668723,7.516527248387483 5.544377075024862,7.5090698094738775 5.647952615491584,7.486697492733066 C5.571721017708076,7.103882295168057 5.470631290212554,6.593462031748045 5.568406600413141,6.114528732629917 C5.6471240111678505,5.728399117769972 6.088770115717957,5.029057068538657 6.324093743658354,4.980998017762097 C6.40198255008933,4.965254535611155 6.623019962302932,5.09494851296629 6.781566190791777,5.259409070536649 C6.865353499961683,5.346321958076111 6.956741513732769,5.436834385658308 7.059894383133955,5.517933619541591 C7.0027039469889845,5.0226093668539535 6.766568452532196,3.0602931953471812 6.562731788893686,2.7537095955656796 C6.668047398440248,2.5009852768268748 6.781566190791777,2.256547001325408 6.92068885674668,2.0377954598596886 C7.160380306658773,2.6932382177404524 7.341344756567962,3.221612762507562 7.656406635789907,3.9667863255119427 C7.479996775266986,3.9775581817204815 7.471852671950303,3.8299626222532392 7.318336071706522,3.8076942953550557 C7.407255010313746,4.264151287889743 7.447598346208992,4.73655974226063 7.4973146056330195,5.100317040379761 C7.537087033149216,5.392405036121863 7.57938322371464,5.629502705919373 7.627720105520948,5.9181401446761495 C7.9636239521581995,6.348548220225187 8.494547366685547,6.354284896539694 8.909256373275392,6.293507266556413 C8.756793177708376,5.246151401356908 8.610875956298857,4.088591161100809 8.45178392614197,3.0122341445706198 C8.41035370995528,2.731337278824867 8.325090325043073,2.4131532185110935 8.213145880906639,2.2167739937861857 C8.345805433136418,1.9980224523204666 8.455098343436905,1.7560699897902015 8.571020088327263,1.5207463618498058 C8.836870328158334,2.1856386062988626 8.957202733863923,2.622888467748968 9.306903588235237,3.4497372275020597 C9.184549387979734,3.382724267122251 9.161693994918187,3.3169357353516253 8.98863666748909,3.290645197345173 C9.042413088099412,4.067876053007464 9.245586868278936,5.042314737718396 9.326707231572472,5.836117679855363 C9.350736756960753,6.07144130779576 9.313449562392734,6.224733107686508 9.485799261729362,6.293507266556413 C9.912447628019887,6.229704733628911 10.495122188469484,6.149330114226736 10.877937386034496,5.97532320624264 C10.793336884581278,5.498875720095712 10.759671519512292,5.256265760034565 10.659102984136402,4.642927453678712 C10.348376362736234,4.549295165096795 9.98095911931917,4.502289518996997 9.664777795655858,4.424175912212992 C9.737694976144432,4.1987955361574025 9.889329567387717,4.052132570856522 9.963158212632395,3.827580799124666 C10.174776299475088,3.703514950917627 10.347509642613607,3.64054102231386 10.559670465288347,3.628715761428558 C10.532930575157135,3.2289662115785362 10.499265210088156,2.8440274668526624 10.420464938901072,2.4752985427911276 C10.39220953146175,2.345207663964923 10.257147026693143,2.2018591159589787 10.26129004831181,2.07756846739891 C10.367280141777895,1.8575574473611156 10.437225118557235,1.6006857154007257 10.579556969057958,1.4014273392321408 C10.906528378224928,2.138697508475884 11.05364873311251,2.4954658605660516 11.414790127381616,3.2707586935755617 C11.268044301648363,3.2012599202245515 11.178154818796749,3.120677321137118 11.07671956329823,3.111666663418675 C11.082295241792634,3.2848449670790365 11.113923897433876,3.496967673954886 11.136379074607063,3.6684887689677788 C11.826606476277304,3.8400098639806726 12.473829313545767,4.159851132941914 13.14491595533776,4.284970385825716 C13.113050318859928,3.7850637026465352 13.08444441179167,3.5759601813450748 13.005627568518113,2.952574633261788 C12.932710388029536,2.8862862873630855 12.91704976631097,2.762824243126751 12.866422042130836,2.674163580487236 C13.002313151223174,2.4454687871367113 13.09511683548136,2.1736865689520295 13.26415211752305,1.9781359485508556 C13.490278237470003,2.607875234588533 13.70477738154632,3.2129979290745654 13.960096889027056,3.8872403104334987 C13.840670147847309,3.8395622519249923 13.729004114763649,3.782661081549437 13.641912828713288,3.748034784046223 C13.668203615301032,4.0062138050481675 13.711252924336302,4.224707070546179 13.741262487128965,4.463948919752213 C14.49280660875551,4.729930907670759 15.654592731062651,4.758103454677708 16.445909860228415,4.861678995144431 C16.285989225747798,5.099488436056029 16.193185541489612,5.404414827190062 15.988437413094994,5.597479634620033 C15.348754875172512,5.405243431513795 14.47954893957577,5.434244582844477 13.900437377718225,5.657139145928865 C13.963345017976096,6.1129922516324156 14.025694178919768,6.639622335716767 14.079333051212352,7.029307906032015 C14.75547417937912,7.115482755700329 15.441475698998325,7.191714353483839 16.008323916864605,7.387264973885012 C16.28093473937302,7.426209377100499 16.55685997917637,7.461839363021053 16.764011060109816,7.566243507811509 C16.64958080300218,7.7700801714500205 16.63640599425481,8.075006562584052 16.485600007335265,8.24238463597828 C16.21124911574701,8.24238463597828 16.012466938483275,8.327730881322857 15.789655235831258,8.421363169904778 C15.292492641590986,8.631000063809426 14.720838518647048,8.824064871239397 14.278363809773206,9.057731290532324 C14.333880299463372,10.291605989004307 14.604751052891944,11.86993150485242 14.377713468188889,13.094691555763331 C14.339597669297135,13.300102567616934 14.272397858642323,13.592765614759708 14.099385275846709,13.711173172621267 C14.111731480270342,12.771370148642406 14.061269476954953,11.821872454075862 13.98014911366142,10.946949148645356 C13.904162782757732,10.386117426773703 13.868622286104141,9.820401911017965 13.751892651998146,9.266418603881974 C13.463621207771164,9.395680878384445 13.102574274394962,9.512635064262172 12.866422042130836,9.694099411159874 C12.974140604216226,10.009797658502444 13.05368661929467,10.432385863606674 13.005627568518113,10.787857118488468 C12.997304238086203,10.827519921652634 12.996201365731316,10.841942608511545 12.996040616492511,10.865319193692722 C13.108260157264427,10.736929439543141 13.20188001678149,10.646159150295404 13.4034405043427,10.648568731668819 C13.524416735607836,10.82414998786801 13.480500706449943,11.083586001629058 13.44313065144955,11.304906216498349 C13.392585787701787,11.603203773042516 13.265726465738146,11.974335649642876 13.224296249551456,12.239406172805317 C13.181125964284927,12.518728690335974 13.1672054116462,12.884971801426309 13.224296249551456,13.134381702870177 C13.292158943665257,13.42944770255178 13.568084183468605,13.7708326839301 13.761148990898576,13.850378699008541 C14.02539090973728,13.959754469741402 14.428175471504275,13.88435147628163 14.61618579255947,13.7708326839301 C15.055428944570751,13.505679300335286 15.295641338021177,12.907426978599492 15.332182788697837,12.259541257872046 C15.289713502689185,11.65658329218177 15.191184162553999,11.015002421753614 14.99411222461445,10.449786554405085 C15.078119445371875,10.210334819723847 15.21410501535712,10.01951884442849 15.372038656669432,9.773645426238314 C15.54299050051192,10.193747818371344 15.60736228460983,10.562559602865251 15.690222716983207,11.0264951637238 C15.78476647032123,11.55522758269833 15.788826631507526,12.257801188792204 15.869201250909704,12.816280502988775 C15.904914097262628,13.06403319578518 16.378047166114623,13.534680451665972 16.66474426212651,13.61190637463796 C16.981188253360443,13.697169759550166 17.262167979538567,13.582739502442529 17.420431405371726,13.472535127385937 C17.765959408368712,13.232405594367885 17.445289535083738,12.777418960205665 17.301195243186427,12.378943140922084 C17.103803463977922,11.82756662298856 16.906299823185705,11.277851456724118 16.821541058306657,10.698250189711251 C16.797654881466382,10.556997182040027 16.757645721694896,10.441121010387478 16.6448577583569,10.35060261685415 C16.774948637183105,10.17576710454632 16.789034910686578,9.884844126483388 16.923268811131454,9.714151635794229 C17.200022655258536,10.100281250654174 17.531464384752052,10.431722980147688 17.6987595977139,10.92722836574049 C17.61589916534052,10.977773229488253 17.511412160117693,10.808737947446561 17.40037918073736,10.887538218633642 C17.54299855693843,11.697672951991404 17.72436347131727,11.791462675394829 17.85785162787079,12.279593482506403 C17.950655312128976,12.620978463884724 17.93830910770534,13.09908315867912 17.85785162787079,13.512556716222278 C17.736046792281922,14.134838563346353 17.27277411488236,14.562398394392986 16.52545587530686,14.40753224628714 C15.953801752362923,14.288958967560836 15.65210691809145,13.715564775537054 15.431781028410638,13.214424880542861 C15.209362084208067,13.707983045974892 15.061293805974138,14.20838714032961 14.576495645452624,14.546903493539164 C14.200174219972716,14.758092363342165 13.678565312369326,14.702901515151229 13.48265507769165,14.546903493539164 C12.839575262041858,14.12423242800256 12.797316441531436,12.988298760595912 13.005296126788615,12.08089416567504 C13.043916545713525,11.890739416630021 13.073868934807853,11.764112103877027 13.045151994760213,11.623504578973991 C12.927490180790015,11.618450092599216 12.850347118250399,11.780193656592052 12.806513949524883,11.90183277131617 C12.66324826195131,12.297822777628546 12.62007797668478,12.838238517567724 12.547989400519938,13.33357818229578 C12.476812289111209,13.824111941946184 12.255574934674287,14.569027228982856 12.01113665917282,14.745602810370524 C11.484227169710506,15.12676079928807 11.085229329702974,14.373136880808953 10.982311701069296,14.123765095163971 C10.204169380650898,14.568808477441388 9.180295333381686,14.94757345707199 8.451452484412476,15.859329881901106 C8.345473991406925,15.976080231115198 8.212814439177146,16.08545600184806 8.15307206743594,16.17751394221488 C8.079326282623631,16.29103273456641 8.113381920329092,16.38135060585339 8.093412556127106,16.515584506298268 C8.000608871868923,17.150295418278347 7.804229647144015,18.041045066292163 8.45128676354773,18.166164319175966 C8.676750000035693,18.186050822945578 8.916962393486116,18.144620606758888 9.047881876636055,18.086618304097524 C9.349493850475152,17.95238440365265 9.679278371321201,17.677370628605406 9.942774546268545,17.43036367970036 C10.788779560800739,16.635649272807292 11.428544959155596,15.476514684336097 12.528020036317955,15.024096723577452 C12.842889679336796,14.929470109807058 13.394740158943497,14.894668728210233 13.701240898292623,15.024096723577452 C13.774240939213568,14.957725517246374 13.779046844291225,14.823574477233874 13.920075300190717,14.825314546313715 C14.317888236015309,15.355538453070967 15.077510421193931,15.75003697160062 16.00969028539444,15.680351347974609 C15.845164268082508,15.44820044598979 15.675317782407879,15.11338215387706 15.491109097989973,14.805179461246986 C15.39830541373179,14.708457307141863 15.32712830232306,14.690914925004094 15.272357556524256,14.60648014441562 C15.346849085227921,14.389385811597371 15.368392797645,14.119260802060156 15.43144958668114,13.890483148277259 C15.760950724848474,14.230585450162438 16.111636789760702,14.59916936846732 16.465630643133277,14.8848083367578 C16.3827702107599,14.951179543088879 16.241078871401427,14.834346333442411 16.18721959035873,14.92449848386465 C16.356837381240005,15.191446624424668 16.469044492947063,15.382441578253953 16.58503252618332,15.580835968694181 C16.639614350196315,15.67419730366224 16.96536191077713,15.49374965426976 17.141854631732425,15.421661078104922 C17.602641496160786,15.234396500941084 18.041718927307315,14.939496222124228 18.33504485790907,14.626118066888113 C19.864848133163672,13.023713309392294 19.997119898569935,8.66522639400557 18.394704369217905,5.955602423337776 C17.695445180418965,4.633978526982387 16.774782916318358,3.684397971983469 15.670253352781222,2.8334213315088697 C14.265542815072074,1.821750388696581 12.632376122057638,1.1840480493869565 10.917296091411849,1.0436359922438916 C9.842513423096756,0.9897767112011957 7.715486124072127,1.302160541248833 7.616053605224073,1.3817065563272766 C5.211443857748626,1.8158952219637803 3.1647911781261735,3.854261858348894 2.6842006703605774,4.623206670773847 C1.9186305976253273,5.6677242347228365 1.365197235178997,6.796147183957863 1.0137343537132653,8.043685319146915 C0.9358455472822895,8.352754731899621 0.8422132587003716,8.63945182791151 0.794982812247546,8.958464492549016 C0.5530303497172802,10.59164361462831 0.80906908575102,12.324255255555656 1.2125993914093738,13.512473855789906 C1.7835077704619526,14.945959335849354 2.6302585288855083,16.284983923003153 3.937050407846062,17.251136564476745 C5.802667791889644,18.685830149640204 8.141072882503087,19.62995434516733 10.300814474553912,19.259673445207444 C10.89618491045176,19.154505327230506 11.856664926725076,18.740921565312288 12.548072260952312,18.364697915142585 C12.548072260952312,18.477305242738 12.548072260952312,18.590161151630546 12.548072260952312,18.70276847922597 C12.654133614390238,18.93900357192247 12.998750152631121,19.011092148087307 13.264069257090679,18.921602881124063 C13.52499675863445,18.832942218484543 13.887262568970858,18.508957927904635 13.999869896566281,18.24546175295729 C14.10435690178911,18.001934942211932 14.015530518284848,17.45994485405766 14.377796328621262,17.62906299653173 C14.325594256226031,17.966222095859003 14.496369607347564,18.231541200318564 14.755722760676239,18.24546175295729 C15.052363108572935,18.26112237467586 15.256133483865547,18.08272634958895 15.332431369994955,17.78798930582387 C15.404195961869217,17.50151676158371 15.240231738288774,16.961345459920036 15.471719756814606,16.933035364595344 C15.552861663820558,16.92311199921431 15.5984133579135,17.179130848744283 15.690471298280325,17.27110592867873 C15.760985526230069,17.3415372961961 15.823876594401465,17.32330800107396 15.869449832206824,17.41031145506601 C16.1312887985067,17.521344434446338 16.5605058382008,17.53543070794981 16.78422900560892,17.41031145506601 C17.075980587995588,17.24707640329045 16.81066148353603,16.99683789752285 16.684796486760867,16.833602845747293 C16.57550357646038,16.692740110712553 16.527444525683823,16.62078908286545 16.386498930216703,16.47572863832667 C15.959080790509432,16.553134368436908 15.54230938775781,16.497288922830226 15.153452836068459,16.47572863832667 C15.16845057432804,16.79308409431671 15.175908013241642,17.293478245419546 14.895011147495891,17.43036367970036 C14.171722433308666,17.218903856283504 13.744825485721023,16.711052266267064 13.622274906240795,15.8991857498727 C13.417609638278547,15.780612471146398 12.936273386621593,15.756582945758119 12.647836221529863,15.799670370592272 C11.895383949564504,16.01537181954233 11.335866394150294,16.681742874127956 10.858133742697259,17.271437370408226 C10.526692013203743,17.623594207995083 10.186881380040516,17.98229701973944 9.844004910879477,18.285483341793633 C9.662540563981777,18.446232580597982 9.443789022516059,18.622725301553277 9.227523294021541,18.70318278138783 C8.466118780942564,18.985736855781056 7.917499858198424,18.492634422727082 7.815664386811543,17.84814597972694 C7.777465727487413,17.60793358627652 7.785006026833392,17.311293238379815 7.815664386811543,17.09245883648173 C7.842925469062383,16.90022263337549 7.902568242563876,16.708611197929343 7.915014045227224,16.53555387050025 C7.69260255846357,16.823013282489978 7.52722722171981,17.08740435010695 7.278645924599675,17.291158153313088 C7.090552743112106,17.445112836662826 6.817113316279957,17.59011859331624 6.5428452851240735,17.62906299653173 zM20.358993779061223,11.862059763776948 C20.16371328366959,12.962959211771812 19.847947919376793,14.057082333607173 19.18569005665418,14.984157995173483 C18.67203823637161,15.61306867688743 17.965984492118046,16.051317503710226 17.157349532586245,16.39601690238348 C17.246838799549497,16.796232790746902 17.457304297777878,17.422740519922012 17.27658569477154,17.927277692643518 C17.12586256828436,18.077337935671704 17.00397487226312,18.254493540085992 16.759619457194027,18.285069039631765 C16.384261698542623,18.332299486084594 16.02464742204216,18.089684140095343 15.765294268713484,17.966884979317996 C15.690719879577445,18.49387732921268 15.466913851736948,19.17010131781182 14.830628591541775,19.12030219795543 C14.558929233789465,19.098758485538344 14.485100588544785,18.91828846382913 14.293775850194654,18.782231633872037 C14.14462707192257,18.909919560159416 14.097479485902122,19.15427497522851 13.95570528611127,19.33921946028589 C13.756923108847534,19.598572613614564 13.266389349197135,19.972273163618503 12.762597920366991,19.77655682235258 C12.522385526916567,19.683007394203038 12.423698751959872,19.45174392744894 12.325177697867925,19.180127430128998 C10.257411351472413,20.331662888347235 8.012094487841926,20.095557057925237 6.578060968882759,19.538001637549623 C5.938295570527902,19.305909566471787 5.320985349346231,19.018383866136165 4.7485026220785596,18.68296483588873 C3.253567762510579,17.799654397493388 1.9857448963139284,16.594059964590446 1.1689319435486032,15.063621149819552 C0.7419660063649626,14.256291242097632 0.4118330739728724,13.38662543110122 0.19457611927004426,12.498345023972126 C-0.09634685879288812,11.08068588649599 -0.04323332164155249,9.410882453307664 0.27412213434848776,7.904562653192014 C0.45218920351887837,7.492746304296322 0.5202176184974222,7.056900430012352 0.691738713510316,6.651712915706529 C1.1822724731607173,5.495809884097899 1.8078687375797262,4.488227026437614 2.6206467187301965,3.5891913351864555 C3.1368672124163455,3.0182829561338775 3.723601934052239,2.4523462030237013 4.370659050455953,2.018157537387198 C5.6411314618381745,1.1475626123625813 7.046196145035284,0.572652687593568 8.566711345843846,0.34769122073988495 C10.770631468902323,0.04327350980019179 12.060190863742182,0.27173154023706597 13.95595386740839,0.8647403187497674 C16.456592227169995,1.9498482255429084 18.322569391210944,3.795155771867884 19.563947930438655,6.253982840314313 C20.37951499374282,8.05600641685954 20.539468772396383,9.911166400035441 20.358993779061223,11.862059763776948 zM14.99460938720869,8.083624047550886 C14.672111612785557,7.94940688491335 14.461795263335448,7.951755232427246 14.209130604107951,7.884275933534041 C14.208869593745979,8.039385194148469 14.228878730955502,8.140570708303814 14.239005104395849,8.322262092786215 C14.49081795837855,8.242716077707772 14.7692290111531,8.18968540098881 14.99460938720869,8.083624047550886 zM13.682100138414373,8.560817277589171 C13.638529637259479,8.252334930999837 13.634062631350234,8.07575495800925 13.562863976229082,7.805130134343957 C12.893205019686881,7.699994000493916 12.35300057385026,7.629319603328393 11.612017842934025,7.651691920069205 C11.62825020163597,7.922655228600741 11.687028077944351,8.400371059386009 11.696623316013184,8.665961366040724 C11.935716265022247,8.863067276757546 12.069599665838181,8.963985483158055 12.23087506838811,9.167234666331039 C12.740963890078625,8.981710158247045 13.183197475094262,8.758025106637811 13.682100138414373,8.560817277589171 zM13.483317961150638,6.910320325143843 C13.421544680211959,6.640643673406202 13.42883888407379,6.371302440698806 13.34548543212779,5.826385059189652 C12.830010682333,5.984648485022804 11.954866968152382,6.315727948705982 11.434849809454885,6.522171235826097 C11.44230724836849,6.614146315760546 11.469063710586179,6.737142021483483 11.49466758418955,6.810887806295789 C12.125152614118589,6.791001302526178 12.879265409148708,6.90534869920144 13.483317961150638,6.910320325143843 zM13.184937544174101,5.110629601211655 C12.654713637416851,4.949051758083567 12.10709898311308,4.802734403646117 11.574213599267994,4.643093174543458 C11.499722070564328,4.667951304255471 11.504610836074356,4.7723554490459295 11.434925212448345,4.802185204700345 C11.403438248146463,4.7532975496000525 11.285655457945,4.753643077603049 11.245965310838152,4.761929120840387 C11.298995987557115,5.01631064822666 11.34541440177268,5.493345200536951 11.395235065341497,5.8163968969505 C11.983004713777737,5.611511054517277 12.610604543451531,5.375801711264183 13.184937544174101,5.110629601211655 zM12.528682919776942,11.901667050451422 C12.59623654447799,11.56164180876835 12.775701469142517,11.235998652332327 12.932625041784194,10.942933732092543 C12.92391226732013,10.932362398130346 12.891667958666357,10.932343340230902 12.836509426044044,10.931102919558272 C12.494479790501863,10.843564187173092 12.270158370772002,10.821084151870195 12.111066340615116,10.569188437455123 C12.03326039461651,10.445809253651163 12.046518063796253,10.279176924148297 11.95197431045823,10.13168535452368 C11.914687115890207,10.134171167494884 11.885603104127151,10.144943023703426 11.872428295379784,10.171375501630532 C11.973014231446475,10.95758014211886 12.05568739924269,11.745197552979157 11.991664457565074,12.538035171078974 C11.920020013317759,12.960902615840304 11.806758916910912,13.174524267937786 11.653593893481691,13.472535127385937 C11.600480356330356,13.5778507369325 11.392133599357763,13.839200826681374 11.295719686061068,13.930007574519358 C11.345150905597734,14.058200120839889 11.53924649680643,14.222504900797388 11.792882280301338,14.208418627293915 C12.253381619029364,13.91384564718493 12.326846506975924,13.28066351018214 12.40944675759165,12.77659035588193 C12.456594343612103,12.482684402253556 12.463223178201973,12.178586615443256 12.528682919776942,11.901667050451422 zM11.653759614346441,12.57797389948294 C11.668757352606018,12.334447088737582 11.622272650044554,11.974749951804744 11.594017242605233,11.663111865648467 C11.545393912284208,11.23616851621869 11.529450736491249,10.803550055775663 11.425586013115543,10.3851852469095 C11.418957178525671,10.3851852469095 11.362008031959773,10.410344988595355 11.355379197369901,10.410344988595355 C9.022940886491668,11.565336555447882 7.673807326588317,13.702307106357315 5.5882931041827515,15.103642738655894 C5.441547278449498,15.516204831442947 5.014070307835239,17.258013980363735 6.463299270045628,17.01274710053854 C6.936432338897622,16.932289620703987 7.346591479145846,16.361464102083783 7.656406635789907,15.998535408288383 C7.996963012844495,15.599230984681071 8.29683491760375,15.113585990540697 8.670618328040062,14.805428042544102 C9.012003309418382,14.52378543290699 9.37078898159511,14.347955595410681 9.704633663627455,14.149173418146946 C10.050161666624444,13.94376240629334 10.420630659765818,13.78533325959544 10.798391370956052,13.532774661721383 C10.790851071610074,13.29745103378099 10.738648999214847,12.980095577790946 10.738648999214847,12.697541503397726 C10.738648999214847,12.42283348334594 10.770012501472493,12.145542703617076 10.823910726918404,11.952312175322355 C10.831058267814933,11.926687586610889 10.89330882484408,11.9326195649645 10.917627533141344,11.922050716815276 C10.858796626156243,12.421616263594375 10.919367602221184,12.947780009165328 11.016977191557025,13.353796127794883 C11.323892233068017,13.223373807239188 11.629564368093414,12.978189787846361 11.653759614346441,12.57797389948294 zM10.718928216309983,9.992645549001155 C10.911261366122098,9.855306868155253 11.202355036675717,9.70908720616757 11.326098806382122,9.629464959491344 C11.329878899306994,9.539624364294827 11.282800087445413,9.398761629260084 11.26552783031718,9.276490289436957 C11.088123644605778,9.138113367373414 10.889703567431516,9.084495210188924 10.65926870500115,8.978433856751002 C10.088277465516198,8.714109077479923 9.688973041908886,8.467184989007256 9.863725693784342,7.586378592878241 C10.053472769502083,7.122856091275074 10.508234851892574,6.946704921022022 10.957325137687105,6.8316576022745 C10.920430701568534,6.738629117663289 10.940493698059102,6.693398093443632 10.917451040420389,6.658053313131308 C10.5719230374234,6.7761982034222425 9.85709685919447,6.978183019257641 9.505851486363717,7.069329494868357 C9.62019888303898,8.061997474701434 9.790808513295767,9.646288941680433 9.545541633470567,10.569354158319868 C9.523086456297381,10.653126055449357 9.481656240110691,10.804760646692637 9.36656309954407,10.808075063987577 C9.371617585918846,9.536084566623838 9.169355270495428,8.300718380369137 9.028492535460684,7.10910250240758 C8.563728370278405,7.102473667817709 8.102941505850046,6.988126271142446 7.775725658407573,6.91023746471147 C7.855869842947321,7.453845485668264 7.93599182089119,8.00896679798247 7.914931184794848,8.700022803976449 C7.827927730802802,8.917945741118434 7.726092259415919,9.120953800433213 7.656406635789907,9.356277428373609 C7.185013636017757,10.263599162862102 6.097801902846657,10.498094186478763 5.270026183436604,11.026743745020921 C4.681634253153242,11.402101503672323 4.215212879323494,11.828832730395225 3.758651896946178,12.31936649004563 C3.6161319532639666,12.471912546045015 3.400694829093183,12.619404115669628 3.3012623102451286,12.796808301381034 C3.234062499590318,12.916044463566326 3.0898853472606396,13.287342061031437 3.071656052138496,13.364402263138677 C2.9945958500312537,13.687557949394856 2.941565173312292,14.06788733398866 3.042654900807814,14.407615106719515 C3.2654666034598283,14.992775480140313 4.121497730309203,14.951345263953623 4.732924860792363,14.76557217457251 C6.468022314690909,14.135087144643473 7.531204522473733,12.471912546045015 8.909090652410645,11.364980029969052 C9.490190864645148,10.898310074842183 10.079411399252246,10.450035135702203 10.718928216309983,9.992645549001155 zM11.171368549385368,8.467224264852199 C11.13691269579155,8.162884939881533 11.099527725913324,7.921942214580168 11.057164501258113,7.685893972158668 C10.874042945712947,7.739753253201364 10.276619228300884,7.698323037014676 10.241817846704064,7.904645513624387 C10.222842807690562,8.015678493004716 10.466369618435921,8.1722847101904 10.560001907017842,8.222829573938162 C10.757955479957841,8.329553810835074 10.967531885746858,8.434742975361836 11.171368549385368,8.467224264852199 zM7.537170473604617,8.918774345442168 C7.614313536144231,8.664392818055894 7.504109161087637,8.316033474084708 7.437820815188935,8.123314194657732 C7.240612986140293,8.224403922153254 7.290329245564322,8.572417738121446 7.099750251105549,8.680136300206838 C6.736821557310152,8.42244035552563 6.500669325046023,8.221918109182054 5.946333032468121,8.222746713505789 C4.95283644831131,8.22523252647699 4.309839493093893,8.90137365464376 3.7787041215805353,9.396050435912828 C3.269858206375618,9.870840713412289 2.7910077676898633,10.447466462298628 1.9092899068047413,10.450035135702203 C1.2821192941706385,11.032543975287055 1.111343943049105,12.916873067890059 2.426339004814624,12.617664046589791 C3.381995052436024,12.163373440059503 3.9105170887727554,11.182281891233313 4.773029310061079,10.589074941224734 C5.175648150963326,10.341405108860705 5.609919677032203,10.162426574934209 6.025879047546563,9.952706820597184 C6.455841831132027,9.735612487778933 6.92657194744519,9.559119766823637 7.258842281262436,9.276565692430417 C7.346591479145846,9.201328419835388 7.525570013072344,8.956144400442561 7.537170473604617,8.918774345442168 zM7.4178514509869515,7.984191528702832 C7.349721200537019,7.52662594644342 7.302440540662176,7.061052483418148 7.231392277225785,6.592801219799866 C7.207361674651883,6.527713438705821 7.144679663351368,6.489233716795083 7.059894383133955,6.413157730903572 C6.890006632964006,6.260721050674914 6.57267504077849,5.7071868470823865 6.324093743658354,5.717130098967192 C6.139397839898093,5.7245875378807956 5.70844073112415,6.192748980790386 5.767271638109248,6.830774310065399 C5.927179760664583,7.533427296453492 6.926420892876973,7.577438283666881 7.4178514509869515,7.984191528702832 zM18.434891678918994,9.833553518844267 C18.596469522047084,11.21317971786102 18.84932310306039,12.884607215523864 18.41508803558176,13.989832806692942 C18.258595337188424,11.483475419888928 17.86473070096643,8.999216081794568 17.502988568562618,6.516443757019585 C17.453293852851004,6.2120847112660105 17.383093665939953,5.92954074584554 17.26167081694433,5.697243595197581 C17.38770153458424,5.4652343845521205 17.494508631913526,5.2141672744607845 17.639514388566933,5.001215963261202 C17.904667772161748,5.588696428788455 18.066438680097264,6.1111065967728955 18.3555113847053,6.870547317604622 C18.27265095233192,6.961693793215339 18.116887425743474,6.637659703515573 17.985967942593536,6.6459457467529095 C18.043176442312763,7.498650772986385 18.254176390329953,8.428201309946823 18.3555113847053,9.276814273727537 C18.37365781939507,9.45570994722166 18.413513687366663,9.645460337356697 18.434891678918994,9.833553518844267 zM18.41508803558176,16.674510815590406 C18.323858699538672,16.914640348608458 18.202136724382175,17.124442963377852 18.057130967728767,17.310878936217954 C17.78452014522035,17.213103626017368 17.602310054431292,17.02335323588233 17.381072699994366,16.873458713718886 C17.47710794111512,16.62487741659875 17.64200020153814,16.44507027834852 17.738946907414988,16.197400445984492 C18.003188826253695,16.31738235206115 18.23196648003659,16.473159964923095 18.41508803558176,16.674510815590406 zM9.187833146914693,10.3109124697473 C9.257435910108327,10.585180500903185 8.941654802333385,10.817023990683897 8.829876079061695,11.02682660545329 C8.572925878271848,10.899304400030664 8.365774797338402,10.721900214319259 8.13393130755769,10.569354158319868 C8.232452361649635,10.290197361653956 8.401487643691329,10.081306211640669 8.551547886719517,9.85344002261388 C8.643274385356847,9.94367503346849 9.15054595234667,10.163338039690315 9.187833146914693,10.3109124697473 zM8.929308597909749,8.99832036052061 C8.961624166535369,9.239444218727144 8.665066679071044,9.459852968840332 8.571351530056754,9.674461488687381 C8.307855355109409,9.553485257422247 8.103272947579539,9.373678119172016 7.8754067585527485,9.21707190198633 C7.950809752012523,8.941146662182978 8.13567137663753,8.774597193112488 8.23328096597337,8.52104427004995 C8.392290135697884,8.567528972611417 8.907682025060298,8.841797003767299 8.929308597909749,8.99832036052061 zM4.65362742701104,12.538118031511347 C4.882322220361566,12.713782148142906 5.198849072027872,12.80161420645869 5.329768555177811,13.074970772858466 C5.226193014711089,13.322723465654867 5.103642435230861,13.551418259005391 4.951924983555203,13.751111901025235 C4.731516233442017,13.573790575746205 4.45716534185376,13.450328531509873 4.255897351618824,13.253949306784964 C4.345386618582073,13.05102410790256 4.521050735213635,12.763498407566933 4.65362742701104,12.538118031511347 z" sodipodi:nodetypes="cccssccccscccssscccccccccccccsccccccccccccccccccccccccccccscccccccscccscccsssccccccccccccccccccccscccccccccccccsccccccccsccccccccscsscsccccccccccccscccccscccsccccccccccccccccccccccccccccccccccccccsccccccccccccccccccsscccccccccccccccccccssccccccssccccccccccccccssccccccccccccccccccccccccccccccc" class=""/></g></svg>